#!OML:ASF F:\VICON\USERDATA\INSTALL\rory3\rory3.ASF
:FULLY-SPECIFIED
:DEGREES
64
root 0.3290119845315129 17.88462725782115 6.8643754851011 0.3161471906231732 1.1266144777182303 -1.5587128011583031
lfemur -30.31369237722323 8.96773983575047 -17.107723388380904
ltibia 43.841014280677086
lfoot -3.7958928621126784 2.18299225639252
ltoes -14.570260074491529
rfemur -29.40150895867869 -7.986852846308282 20.42992481704557
rtibia 47.24311947431155
rfoot -7.272155567322075 -1.7022950042561464
rtoes 4.412398830065622
lowerback 5.29129608054894 0.7148857967949734 -1.5460355479828476
upperback 3.220646866571354 0.7839778547717036 1.621061209511609
thorax -0.5606379438666953 0.39109008620964686 2.3036567904490357
lowerneck -10.58818811593992 -1.0607319189315434 -2.233218766425233
upperneck 27.08738308596525 -1.8471423354934409 3.0907524848324757
head 10.553475047760188 -0.6024839143088315 1.1599487972624438
lclavicle -1.8573943750786837e-15 9.041234542157707e-17
lhumerus -22.58420885708415 3.253290166092277 84.01427474356335
lradius 20.157784654821814
lwrist 14.639602377346236
lhand -24.877419833805384 -9.418916511975237
lfingers 7.125019999999999
lthumb 1.6298940237509822 20.5298859134012
rclavicle -1.8573943750786837e-15 9.041234542157737e-17
rhumerus -22.426748171287233 -12.474697242707233 -80.94991885323843
rradius 28.03482685167421
rwrist 38.836343705617736
rhand -19.601443221502663 -27.379410018151127
rfingers 7.125019999999999
rthumb 6.725017453725623 -57.225607995583886
65
root 0.33956062875140813 17.58124647426519 8.109098151066476 0.3691742432782785 0.8751805069571242 -1.551436552132264
lfemur -29.260509214972586 8.295911846353656 -16.931945428307632
ltibia 43.48847945399197
lfoot -6.3575964231708255 3.29193683796456
ltoes -14.434583663009525
rfemur -28.528431714284437 -7.316593296888541 20.3965602487516
rtibia 46.51669278646006
rfoot -10.032078218000109 -1.454871131718257
rtoes 4.252908725912333
lowerback 4.824285929914396 0.7569665235910029 -1.3361442264667596
upperback 3.0190591169322025 0.8581453421006542 1.5677020016878678
thorax -0.3849179814484889 0.43326046099110593 2.163141034312522
lowerneck -10.760448716192316 -1.0885677718661504 -2.1620909394134493
upperneck 27.590483900672186 -1.924188172418411 3.149562898038948
head 10.783752466154054 -0.6196557602904655 1.1588088028509707
lclavicle -1.9006067885938473e-15 3.476275973169691e-17
lhumerus -24.681327790526545 4.223586154978612 83.95534182608664
lradius 19.77792737922715
lwrist 13.594310970922653
lhand -24.83609743114144 -9.082758145659339
lfingers 7.125019999999999
lthumb 1.6698194225940732 20.869969186749998
rclavicle -1.9006067885938473e-15 3.4762759731697306e-17
rhumerus -22.389574136934844 -11.461272765545527 -81.2663909503131
rradius 29.09218323165861
rwrist 38.42984149978669
rhand -19.971437729158588 -27.500101210680118
rfingers 7.125019999999999
rthumb 6.368049995156943 -57.35476359027618
66
root 0.3554413471228528 17.45954790217623 9.189678985670078 1.4178180253775068 0.6738784769503637 -1.495682367956305
lfemur -28.292865142098595 7.996155607145353 -17.000013084556716
ltibia 41.96182644760128
lfoot -8.22916676848234 3.6502153990209107
ltoes -15.17544357535939
rfemur -27.512084684763572 -6.578251071132722 20.299914519073724
rtibia 44.79949110442075
rfoot -11.983891083447412 -1.0981136250679087
rtoes 4.567400044662352
lowerback 4.259546734342556 0.7399501327043736 -1.2904189888075206
upperback 2.740011196861524 0.84637131832883 1.5105934437262059
thorax -0.1806571891543678 0.4300983121593832 2.0938452479308745
lowerneck -10.892085580848905 -1.0910706322395256 -2.1146676689103834
upperneck 27.96879479169707 -1.920593346681882 3.145118166564078
head 10.955496335848107 -0.6245381204662197 1.1492434434935035
lclavicle -1.8440109025801092e-15 1.0445086114643084e-16
lhumerus -26.94488462093524 5.725797788425604 83.96302918167369
lradius 19.328207850821457
lwrist 12.70686324170314
lhand -24.64337135625593 -8.687818096102884
lfingers 7.125019999999999
lthumb 1.8559393186179753 21.26606086383565
rclavicle -1.8440109025801092e-15 1.0445086114643094e-16
rhumerus -22.57547959420792 -10.566572940402356 -81.36123601262813
rradius 30.183065437331496
rwrist 37.858483719776714
rhand -20.29746758573998 -27.59410147067155
rfingers 7.125019999999999
rthumb 6.053479435823829 -57.46170398059275
67
root 0.36074514076680914 17.44626331024297 10.136888983795739 2.767706128801774 0.5381664890186234 -1.4736275802626082
lfemur -26.580067903706798 7.643076427034574 -16.931174384464416
ltibia 38.634541023052456
lfoot -9.086432972773352 4.189780819869202
ltoes -13.602443897509819
rfemur -25.85925938359124 -5.971706564237294 20.257146562951796
rtibia 41.12650213469577
rfoot -13.034918268389482 -0.9371438764911177
rtoes 5.7769180186760885
lowerback 3.3015679230114 0.6804173036690925 -1.1393009916618397
upperback 2.355217208415594 0.7799791836150043 1.4522817843773665
thorax 0.1328924458386347 0.40204085982025295 1.985167482688237
lowerneck -10.984366461992225 -1.0893999858440404 -2.0415825452362135
upperneck 28.01340329605031 -1.9313449582595525 3.109305446085374
head 10.984031100280934 -0.6245924548160523 1.1257060167554314
lclavicle -1.8577106804958518e-15 9.085763113903601e-17
lhumerus -29.07980983248848 6.064862114836162 83.56328757982978
lradius 18.777061076489066
lwrist 11.27019966065576
lhand -24.37045471177607 -8.247863925756812
lfingers 7.125019999999999
lthumb 2.1194604157975783 21.704882842037783
rclavicle -1.857710680495852e-15 9.08576311390362e-17
rhumerus -22.934136344105305 -10.814074892437365 -81.23050793050815
rradius 30.572000569596483
rwrist 37.781509692176485
rhand -20.46812844257041 -27.634875415813635
rfingers 7.125019999999999
rthumb 5.888828346947273 -57.50812029963854
68
root 0.37269373036279313 17.517284775994078 11.051672311117953 4.101866979442418 0.44688230594335676 -1.4258710040372895
lfemur -24.742928141913897 7.561605864834959 -17.07665162764706
ltibia 35.28337594234773
lfoot -9.471374845002444 4.322523178683415
ltoes -12.488115927608009
rfemur -24.300075235859115 -5.283899681350864 20.15387897684503
rtibia 37.84391821258496
rfoot -13.432130746599116 -0.49687431054316944
rtoes 7.014304297178149
lowerback 2.5344625148940803 0.5968872656248656 -1.0918344360065375
upperback 2.0620559022253264 0.6826767511286544 1.436675534406415
thorax 0.5066194980808485 0.35467635422216365 1.9541905488158562
lowerneck -11.065163925867896 -1.0715679948715449 -2.0194342524241824
upperneck 28.43450366770046 -1.8855858655396023 3.0703877012574416
head 11.160358929914432 -0.6144039773223537 1.1147276217928868
lclavicle -1.7833339247266855e-15 1.8795272058363157e-16
lhumerus -30.50547712997995 7.016727031333474 83.08132887954423
lradius 18.222612988311823
lwrist 9.515559866616448
lhand -24.211414630605585 -7.8675637088685875
lfingers 7.125019999999999
lthumb 2.2730489825339104 22.090661274114645
rclavicle -1.783333924726685e-15 1.8795272058363152e-16
rhumerus -23.3915548462635 -12.293474078534695 -80.60399531640233
rradius 30.06470910230866
rwrist 38.159518947934515
rhand -20.58248896032463 -27.67876179720902
rfingers 7.125019999999999
rthumb 5.778501861623614 -57.555227976335026
69
root 0.38135261660639996 17.545886418150246 11.53492078987445 5.680497990281677 0.39611793981765386 -1.4320198027417534
lfemur -23.87492173151361 7.613944927094151 -17.22676242203531
ltibia 32.409007539742994
lfoot -10.112969570562528 4.30671831338022
ltoes -11.769693122967716
rfemur -23.467969653433947 -4.659305174730484 20.148284744052766
rtibia 35.0036797488073
rfoot -14.1311244028613 -0.2920560227554634
rtoes 8.019661290517105
lowerback 1.866424226818114 0.5641011360588052 -1.0658638413871169
upperback 1.7991958666319507 0.6434329693208192 1.4211389780415808
thorax 0.6624910746085979 0.33854513325167845 1.9177472859342601
lowerneck -11.257805102166142 -1.0861730215306564 -2.0041823960288383
upperneck 28.536935473753786 -1.8855150251066466 3.0010005238112076
head 11.234004253564848 -0.6235989076167738 1.0949275493005208
lclavicle -1.834431649115082e-15 1.1762704547198923e-16
lhumerus -31.7031038737205 7.6377317875758965 82.60025493796621
lradius 17.40333402564094
lwrist 7.957061100767343
lhand -24.202282340900585 -7.7510202747782095
lfingers 7.125019999999999
lthumb 2.2818414465729626 22.205925642623857
rclavicle -1.834431649115082e-15 1.1762704547198913e-16
rhumerus -23.820295142372412 -14.661591652536059 -79.7919057696969
rradius 28.730081131613833
rwrist 38.87791389614441
rhand -20.67658003572747 -27.7731415579419
rfingers 7.125019999999999
rthumb 5.687711827125976 -57.656420840690906
70
root 0.3860436015049156 17.586034872994727 12.02572353479101 6.758127641774324 0.34415009045394995 -1.4831901374059249
lfemur -22.521787631590886 7.527437305137191 -17.243595750844932
ltibia 29.60061904551138
lfoot -10.22746100568649 4.461411597890285
ltoes -10.344503644660339
rfemur -22.220451230241295 -4.308323329159452 20.18599220182593
rtibia 32.071967724046026
rfoot -14.39738476230388 -0.1699400954687902
rtoes 8.898157670898565
lowerback 1.2254624046831175 0.5486979030830977 -0.9416870290162284
upperback 1.5885875947391037 0.6270389053892587 1.421101550450153
thorax 0.9356505934810191 0.3332856597898446 1.8609272210356496
lowerneck -11.395043517955571 -1.1013397916191634 -1.990347452941721
upperneck 28.548545368123875 -1.9029569482532769 2.9635042579837405
head 11.265437310045119 -0.6329587887807926 1.0790424369900966
lclavicle -1.8551156597773535e-15 9.558646976333742e-17
lhumerus -32.606921512485584 7.316315581120882 82.29975464254325
lradius 16.97891469423798
lwrist 6.7227903013346335
lhand -24.229043444500856 -7.636200843540793
lfingers 7.125019999999999
lthumb 2.2559916014538093 22.325274724313676
rclavicle -1.8551156597773535e-15 9.558646976333738e-17
rhumerus -24.40685180673209 -17.49709383426642 -78.87123973762422
rradius 26.898185240225455
rwrist 40.13903432255321
rhand -20.679346704633875 -27.84044621474483
rfingers 7.125019999999999
rthumb 5.685058378565481 -57.72668937261796
